<svg xmlns="http://www.w3.org/2000/svg" viewBox="0 0 331.04 112.75"><defs><style>.cls-1{fill:#1d1d1b;}</style></defs><title>Recurso 6bio_mol</title><g id="Capa_2" data-name="Capa 2"><g id="Capa_1-2" data-name="Capa 1"><path class="cls-1" d="M155.68,20.59H168c6,0,8.62,3,8.62,6.45a5.51,5.51,0,0,1-3.38,5.35,5.84,5.84,0,0,1,4.06,5.6c0,4.06-3,7.39-9.22,7.39H155.68Zm11.11,9.56c2,0,2.81-1,2.81-2.38,0-1.53-1.12-2.29-2.86-2.29h-4v4.67Zm-4,10.35h3.71c2.39,0,3.4-1,3.4-2.81,0-1.56-1-2.66-3.27-2.66h-3.84Z"/><path class="cls-1" d="M180.38,19.3h7v4.89h-7Zm0,7.21h7V45.38h-7Z"/><path class="cls-1" d="M210.7,35.92c0,5.89-3.67,9.92-10.15,9.92-6.69,0-10-4.4-10-9.85,0-5.69,3.46-9.94,10.23-9.94C207,26.05,210.7,30.2,210.7,35.92Zm-13,0c0,3.59,1.06,5.17,2.93,5.17s2.85-1.6,2.85-5.11c0-3.89-1-5.22-2.88-5.22C198.88,30.8,197.73,32,197.73,36Z"/><path class="cls-1" d="M213.83,45.38V19.3h7V45.38Z"/><path class="cls-1" d="M244.15,35.92c0,5.89-3.67,9.92-10.15,9.92-6.69,0-10-4.4-10-9.85,0-5.69,3.46-9.94,10.23-9.94C240.45,26.05,244.15,30.2,244.15,35.92Zm-13,0c0,3.59,1.06,5.17,2.93,5.17S237,39.53,237,36c0-3.89-1-5.22-2.89-5.22C232.33,30.8,231.17,32,231.17,36Z"/><path class="cls-1" d="M266.21,42.56c0,6.18-2.19,10.09-10.14,10.09-7.58,0-8.91-4.07-9.11-6.18h6.93c.26,1,.87,1.68,2.46,1.68,2.42,0,2.92-1.45,2.92-4.54v-1c-1,1.43-2.41,2.37-5.07,2.37-4.95,0-7.65-4.05-7.65-9,0-5.88,3.38-9.9,8.1-9.9,3,0,4.33,1.34,4.62,2.21,0-.47.16-1.42.2-1.75h6.79c0,1.43-.05,3.22-.05,5.41Zm-12.47-7c0,2.85,1.07,4.5,2.86,4.5,2.35,0,2.89-1.76,2.89-4.55,0-3-.31-4.68-2.78-4.68C255.06,30.88,253.74,32.18,253.74,35.61Z"/><path class="cls-1" d="M270.13,26.51h7V45.38h-7Z"/><path class="cls-1" d="M298.48,39.78a55.44,55.44,0,0,0,.23,5.6h-6.48a8.66,8.66,0,0,1-.29-1.74c-.9,1.17-2.29,2.2-5.32,2.2-4.23,0-6.52-2.66-6.52-6,0-4.44,3.55-6.35,9.32-6.35h2.31v-1c0-1.21-.43-2.09-2.12-2.09s-2,.73-2.17,1.94H281c.25-3.15,2.12-6.24,8.83-6.22,6.18,0,8.69,2.41,8.69,7ZM291.73,37h-1.55c-2.42,0-3.21.85-3.21,2.24a1.88,1.88,0,0,0,2,2c2.38,0,2.71-1.64,2.71-3.66Z"/><path class="cls-1" d="M176.38,80.49c0-3.87.09-8.87.2-11.81h-.2c-1,5.32-2.7,12.68-4.51,19.9h-5.82c-1.42-7-3.05-14.38-4-19.9h-.21c.2,2.92.33,7.76.33,12v7.89h-6.47V63.79h10.46c1.22,5,2.65,12.29,3.21,15.95h.12c.64-4,2.29-10.56,3.74-15.95h10.15V88.58h-7Z"/><path class="cls-1" d="M206.74,79.12c0,5.89-3.67,9.92-10.15,9.92-6.69,0-10-4.4-10-9.85,0-5.69,3.46-9.94,10.23-9.94C203,69.25,206.74,73.41,206.74,79.12Zm-13,0c0,3.59,1.06,5.17,2.93,5.17s2.85-1.6,2.85-5.11c0-3.89-1-5.22-2.88-5.22C194.92,74,193.77,75.24,193.77,79.16Z"/><path class="cls-1" d="M209.87,88.58V62.5h7V88.58Z"/><path class="cls-1" d="M227.1,80.53c0,1.9.73,3.81,2.8,3.81a2.21,2.21,0,0,0,2.49-1.7h6.89c-.68,2.51-2.82,6.4-9.5,6.4-7.13,0-9.75-4.8-9.75-9.73,0-5.69,3-10.06,9.88-10.06,7.31,0,9.54,5,9.54,9.66a13.34,13.34,0,0,1-.07,1.62Zm5.32-3.66c0-1.76-.53-3.25-2.54-3.25s-2.6,1.38-2.71,3.25Z"/><path class="cls-1" d="M260.8,82c-.56,3.4-2.77,7-9.28,7S242,84.68,242,79.31c0-5.66,3.52-10.06,9.82-10.06,7.1,0,8.9,4.8,9,7.08h-6.69c-.18-1.33-.76-2.38-2.3-2.38-1.77,0-2.67,1.67-2.67,5.12,0,3.89,1,5.32,2.63,5.32,1.43,0,2-1.09,2.36-2.35Z"/><path class="cls-1" d="M281.87,82.55c0,1.67,0,4.23,0,6H275c-.08-.45-.12-1.49-.14-2-1.22,1.78-2.84,2.46-5.22,2.46-4.05,0-6.2-2.46-6.2-6.93V69.71h7V81c0,1.71.48,2.92,2.07,2.92s2.31-.93,2.31-3.72V69.71h7Z"/><path class="cls-1" d="M285.86,88.58V62.5h7V88.58Z"/><path class="cls-1" d="M314.21,83a55.44,55.44,0,0,0,.23,5.6H308a7.45,7.45,0,0,1-.29-1.74c-.9,1.17-2.29,2.2-5.33,2.2-4.23,0-6.52-2.66-6.52-6,0-4.44,3.56-6.35,9.32-6.35h2.32v-1c0-1.21-.43-2.09-2.13-2.09s-2,.73-2.17,1.94H296.7c.25-3.14,2.11-6.24,8.82-6.22,6.19,0,8.69,2.41,8.69,7Zm-6.74-2.78h-1.56c-2.42,0-3.21.85-3.21,2.24a1.88,1.88,0,0,0,2.05,2c2.38,0,2.72-1.64,2.72-3.66Z"/><path class="cls-1" d="M318.26,75.13c0-1.81,0-3.74,0-5.42h6.85a30.48,30.48,0,0,1,.17,3.07c.73-1.82,2.56-3.5,5.8-3.53v6.42c-4-.17-5.76.73-5.76,5.16v7.75h-7Z"/><path d="M39.18,19.94c5.4.4,6.44-10.45-1.69-8.49C33.56,13.1,33.59,19.17,39.18,19.94Z"/><path d="M95.11,68.18c-4.64-.42-6.46,8.28-.14,8.9C99.7,77.28,101.86,69,95.11,68.18Z"/><path d="M40.43,92.21c-4.52-.3-6.43,9.91,1.5,8C45.49,98.74,45.36,93.7,40.43,92.21Z"/><path d="M109.52,49.65c-7.23-5.51-31.71,21.08-30.87-14,2.1-1.94,4.09-4.07,7.29-4h0c6.56,3.08,15.66-7.11,15.65-6.86a9.65,9.65,0,0,0,0-7.83h0C100.26,8,87.48,9.62,88,9.62,72.91,14.81,83.78,21.83,76.6,32c.19,0-6,1.42-8.72.11l.05,0C57.75,30,53.7,19.2,59.6,9.14c-.17,0,1.22-3.78.51-6C59.52,1.79,57,.79,57.19.79A3.57,3.57,0,0,0,52.7.8h.09c-1.94.58-5,4.58-2.51,8.37,0-.05.54.6,1,1,0-.34,3.35,14.15-3.9,18.71,0-.07-7.53,2.62-6.89,2.18-13.16,5.79-5.73-15.37-18-13.1-2.77.71-7.41,7.71-4.6,11.87C35.58,33.47,30.15,46.61,18.94,54c-28.8-5.32-19.26,11.46-7.26,4.35,13.89-1.42,12.43,5.43,16.8,12.78,0-.62,1.57,6.11-.14,8.91l0-.07C-4.36,88.84,17.24,109.3,26.9,95.66h0c.67-27.35,37.61-11.29,22,9.93.37,9.79,17.81,12.57,8.19-11.49C54.9,81.61,78.89,72.66,79.69,88c6,13.52,18.74-4.82,6.16-7.12-12.42-.41-8-21.36,1.07-22.36,7.53-1.62,11,3.41,16.65,5.69C112,66.12,117.45,53.47,109.52,49.65ZM15.3,97.76a2.14,2.14,0,0,0-.1-.22l.42.5Zm5.95-13.51.15,0a2.46,2.46,0,0,1,.38.14Zm3.17,12.33.12-.27h.15C24.54,96.55,24.44,96.69,24.42,96.58ZM56.94,22.11a16.53,16.53,0,0,1-.32-3.23C56.69,20.05,56.82,21.15,56.94,22.11ZM44,72.61C29.29,71.19,33.54,51,44.31,52,60,53.78,55,73.09,44,72.61Zm13.85-3.56C55.18,70.55,60.71,63.43,59,58c-2.2-7.36-10.07-8-7-8.46s7,2.22,8.63,7.61C62.9,65,60.33,67.65,57.85,69.05ZM68.57,57.9c-1,2.93-2.47-7.22-8.92-11.86-8.58-6.3-16.22-2.78-13.93-4.87s8.3-1.45,14.59,3.16C69.45,51.08,69.54,55.17,68.57,57.9Z"/><path class="cls-1" d="M281.92,19.05l-6.32,5.4h-5.47l4.3-5.4Z"/></g></g></svg>