<svg xmlns="http://www.w3.org/2000/svg" viewBox="0 0 320.9 111.85"><defs><style>.cls-1{fill:#1d1d1b;}</style></defs><title>Recurso 8biobanco</title><g id="Capa_2" data-name="Capa 2"><g id="Capa_1-2" data-name="Capa 1"><path d="M153.24,57.11c.4-.88-.87-1.18.66-3.42a4,4,0,0,0-.15,4.47A1.34,1.34,0,0,1,153.24,57.11Z"/><path class="cls-1" d="M155.68,41.74H168c6,0,8.62,3,8.62,6.45a5.51,5.51,0,0,1-3.38,5.35,5.84,5.84,0,0,1,4.06,5.6c0,4.06-3,7.39-9.22,7.39H155.68Zm11.11,9.56c2,0,2.81-1,2.81-2.38,0-1.53-1.12-2.29-2.86-2.29h-4V51.3Zm-4,10.35h3.71c2.39,0,3.4-1,3.4-2.81,0-1.56-1-2.66-3.27-2.66h-3.84Z"/><path class="cls-1" d="M180.38,40.45h7v4.89h-7Zm0,7.21h7V66.53h-7Z"/><path class="cls-1" d="M210.7,57.07C210.7,63,207,67,200.55,67c-6.69,0-10-4.4-10-9.85,0-5.69,3.46-9.94,10.23-9.94C207,47.2,210.7,51.36,210.7,57.07Zm-13,0c0,3.59,1.06,5.17,2.93,5.17s2.85-1.6,2.85-5.11c0-3.89-1-5.22-2.88-5.22C198.88,52,197.73,53.19,197.73,57.11Z"/><path class="cls-1" d="M213.83,40.45h7v8.88A6.14,6.14,0,0,1,226,47.2c4.68,0,7.56,3.77,7.56,9.53S230.58,67,225.38,67c-2.6,0-3.77-.82-4.63-2a9.43,9.43,0,0,1-.19,1.52h-6.77c0-1.94,0-4,0-6.05Zm12.59,16.47c0-3-.82-4.77-2.9-4.77-2.23,0-2.94,1.53-2.94,5.05,0,2.95.61,4.93,2.89,4.93C225.47,62.13,226.42,60.18,226.42,56.92Z"/><path class="cls-1" d="M254.06,60.93c0,2.13.1,5,.22,5.6h-6.47a7.45,7.45,0,0,1-.29-1.74c-.9,1.17-2.29,2.2-5.33,2.2-4.23,0-6.51-2.66-6.51-6,0-4.44,3.55-6.35,9.31-6.35h2.32v-1c0-1.2-.43-2.09-2.12-2.09s-2,.73-2.17,1.94h-6.48c.25-3.14,2.12-6.24,8.83-6.22,6.18,0,8.69,2.41,8.69,7Zm-6.75-2.77h-1.55c-2.42,0-3.22.84-3.22,2.23a1.89,1.89,0,0,0,2.06,2c2.37,0,2.71-1.64,2.71-3.66Z"/><path class="cls-1" d="M258.13,52.55c0-1.63,0-3.4-.05-4.89h6.85a18.69,18.69,0,0,1,.22,2.08,6.07,6.07,0,0,1,5.36-2.54c3.78,0,6.17,2.55,6.17,7.17V66.53h-7V55.19c0-1.82-.52-2.84-2.14-2.84-1.46,0-2.38.77-2.38,3.42V66.53h-7Z"/><path class="cls-1" d="M298.63,60c-.56,3.4-2.77,7-9.27,7-6.65,0-9.56-4.36-9.56-9.73,0-5.66,3.52-10.06,9.81-10.06,7.11,0,8.9,4.8,9,7.08H292c-.19-1.33-.77-2.38-2.31-2.38-1.77,0-2.66,1.67-2.66,5.12,0,3.89,1,5.32,2.62,5.32,1.43,0,2.06-1.09,2.36-2.35Z"/><path class="cls-1" d="M320.9,57.07c0,5.89-3.67,9.92-10.15,9.92-6.69,0-10-4.4-10-9.85,0-5.69,3.46-9.94,10.23-9.94C317.2,47.2,320.9,51.36,320.9,57.07Zm-13,0c0,3.59,1.06,5.17,2.93,5.17s2.86-1.6,2.86-5.11c0-3.89-1-5.22-2.89-5.22C309.08,52,307.92,53.19,307.92,57.11Z"/><path d="M44.92,42.39c-10.52-.2-21.33-1.59-31.51-6.22A30.52,30.52,0,0,1,4,29.78c-5.26-5.44-5.23-12,.13-17.37C8.51,8,14.05,5.52,19.9,3.67A86.61,86.61,0,0,1,52.7.3C61.64,1,70.36,2.64,78.41,6.74a35.34,35.34,0,0,1,7.81,5.32c6.29,5.77,6,13.22-.51,18.81-5.27,4.55-11.56,7-18.16,8.77A91.1,91.1,0,0,1,44.92,42.39Z"/><path d="M.06,29.16A18,18,0,0,0,6.86,38c5.82,4.29,12.51,6.53,19.48,8a91.94,91.94,0,0,0,31.38,1.16c8.27-1,16.28-3.11,23.54-7.44,3.33-2,6.28-4.39,8.14-7.88.49-.91.79-1.92,1.36-2.88,0,3.33,0,6.67,0,10a39.54,39.54,0,0,1-.23,5.87c-.71,4.45-3.71,7.37-7.2,9.81a7.09,7.09,0,0,1-2.76.66A27.24,27.24,0,0,0,69.38,60a16.09,16.09,0,0,1-7,2.86C46.63,65.45,31.12,64.92,16,59.28A34,34,0,0,1,5.25,53C1.84,50-.21,46.43,0,41.67.21,37.51.06,33.33.06,29.16Z"/><path d="M.06,73.23c2,5.62,6.31,8.85,11.18,11.46a60.46,60.46,0,0,0,19.33,6.08,86.28,86.28,0,0,0,24,.61c.84,2.76,1.45,5.52,2.51,8.08s2.57,5,4,7.65c-3.43.35-6.85.83-10.29,1-12.55.68-24.82-.64-36.51-5.59-4.53-1.93-8.69-4.46-11.75-8.46A11.46,11.46,0,0,1,0,86.81C.09,82.28.06,77.75.06,73.23Z"/><path d="M.06,51.24c1.7,4.95,5.38,8.06,9.64,10.59C16,65.55,22.88,67.49,30,68.69a92.14,92.14,0,0,0,29.78.1c-1.19,2.72-2.62,5.38-3.54,8.21s-1.33,5.84-2.06,9.22c-4.34,0-8.92.16-13.48,0A74.24,74.24,0,0,1,14.87,80.8,33.31,33.31,0,0,1,4.78,74.57C1.66,71.65-.17,68.23,0,63.78.2,59.61.06,55.42.06,51.24Z"/><path d="M90.7,54.73l-1.58-.25L90.7,50.6Z"/><path d="M87.81,60.71a25.57,25.57,0,1,0,25.57,25.67A25.5,25.5,0,0,0,87.81,60.71Zm17.24,17.36c-1.17.71-2.37,1.38-3.55,2.07l-.61.39c1,.31,1.9.55,2.77.83a1.49,1.49,0,0,1,1.16,1.91,1.52,1.52,0,0,1-2,1c-1.68-.46-3.35-1-5-1.42a1.37,1.37,0,0,0-1,.05C94.85,84,93,85.09,90.94,86.25c.24.16.4.3.59.4,1.63,1,3.28,1.88,4.9,2.87a1.72,1.72,0,0,0,1.54.17c1.59-.49,3.19-.92,4.79-1.36a1.51,1.51,0,0,1,2.07,1,1.53,1.53,0,0,1-1.2,1.9c-.85.27-1.72.5-2.79.81,1.43.83,2.72,1.53,4,2.31a2.08,2.08,0,0,1,.95,1.14,2,2,0,0,1-.47,1.47,1.34,1.34,0,0,1-1.76.14l-4.18-2.39c.23,1,.43,1.8.63,2.63.27,1.13-.09,1.94-1,2.19s-1.67-.31-2-1.47c-.39-1.52-.81-3-1.14-4.57a2,2,0,0,0-1.09-1.43c-1.78-1-3.52-2-5.42-3.11,0,2.45,0,4.74,0,7,0,.22.24.45.42.63,1.22,1.21,2.46,2.4,3.69,3.61a1.56,1.56,0,0,1,.24,2.31,1.5,1.5,0,0,1-2.36-.15c-.59-.6-1.11-1.27-1.66-1.92l-.35.19v2.72c0,.61,0,1.22,0,1.84a1.54,1.54,0,1,1-3.06,0c0-1.51,0-3,0-4.75-.76.73-1.37,1.32-2,1.91-.85.8-1.71.86-2.38.16a1.6,1.6,0,0,1,.29-2.38c1.19-1.16,2.4-2.3,3.55-3.5a1.92,1.92,0,0,0,.51-1.2c0-2.11,0-4.23,0-6.52-1.65.94-3.11,1.9-4.66,2.65a3.41,3.41,0,0,0-2.09,2.82,36.33,36.33,0,0,1-.94,3.8,1.54,1.54,0,1,1-2.94-.78l.6-2.46s0,0,0-.21L73.4,96.4c-.38.21-.75.45-1.13.66A1.58,1.58,0,0,1,70,96.61a1.54,1.54,0,0,1,.72-2.21c1.07-.64,2.16-1.26,3.25-1.88L74.8,92c-1-.29-1.89-.54-2.76-.81a1.52,1.52,0,1,1,.85-2.9c1.68.46,3.36,1,5,1.41a1.4,1.4,0,0,0,1-.07c1.93-1.08,3.83-2.2,5.87-3.39L81.86,84.6C80.75,84,79.68,83,78.51,82.83s-2.46.54-3.69.88c-.68.18-1.34.41-2,.58a1.51,1.51,0,0,1-2-1.07A1.49,1.49,0,0,1,72,81.36c.89-.27,1.78-.51,2.86-.83l-3.55-2.06c-.23-.14-.46-.26-.68-.4a1.52,1.52,0,1,1,1.53-2.62c1.22.67,2.42,1.39,3.64,2.09l.57.29-.66-2.72a1.53,1.53,0,1,1,2.94-.74c.45,1.71.87,3.44,1.33,5.15a1.18,1.18,0,0,0,.44.68c1.85,1.1,3.72,2.17,5.59,3.25.07,0,.16,0,.32,0,0-2.29,0-4.56,0-6.83a1.23,1.23,0,0,0-.43-.7c-1.2-1.19-2.43-2.36-3.63-3.55-.82-.8-.92-1.71-.28-2.37a1.58,1.58,0,0,1,2.39.17l1.76,1.69s0,0,.22,0V69.27c0-.58,0-1.16,0-1.75,0-1.12.63-1.86,1.53-1.85s1.53.74,1.53,1.87c0,1.45,0,2.9,0,4.56l2-1.91a1.55,1.55,0,1,1,2.14,2.17C92.28,73.57,91,74.75,89.81,76a1.23,1.23,0,0,0-.42.71c0,2.27,0,4.53,0,7,1.71-1,3.26-2,4.88-2.78a3.06,3.06,0,0,0,1.8-2.42c.25-1.4.67-2.77,1-4.15a1.52,1.52,0,1,1,3,.69c-.19.91-.45,1.8-.72,2.89l2.2-1.23c.68-.39,1.35-.81,2-1.18a1.52,1.52,0,0,1,2.07.52A1.5,1.5,0,0,1,105.05,78.07Z"/></g></g></svg>