<svg xmlns="http://www.w3.org/2000/svg" viewBox="0 0 415.56 91.35"><defs><style>.cls-1{fill:#010101;}</style></defs><title>Recurso 10bioinfo</title><g id="Capa_2" data-name="Capa 2"><g id="Capa_1-2" data-name="Capa 1"><path class="cls-1" d="M173.26,43.29a5.52,5.52,0,0,0,3.37-5.36c0-3.48-2.63-6.44-8.61-6.44H155.68V56.28H168.1c6.18,0,9.22-3.33,9.22-7.39A5.83,5.83,0,0,0,173.26,43.29Zm-10.53-6.91h4c1.75,0,2.86.75,2.86,2.29,0,1.35-.8,2.37-2.8,2.37h-4.06Zm3.72,15h-3.72V45.93h3.85c2.31,0,3.27,1.1,3.27,2.65C169.85,50.36,168.83,51.4,166.45,51.4Z"/><rect class="cls-1" x="180.38" y="37.41" width="7.02" height="18.87"/><rect class="cls-1" x="180.38" y="30.2" width="7.02" height="4.89"/><path class="cls-1" d="M200.78,37c-6.77,0-10.24,4.25-10.24,9.94,0,5.45,3.32,9.84,10,9.84,6.48,0,10.15-4,10.15-9.91C210.7,41.1,207,37,200.78,37ZM200.66,52c-1.88,0-2.94-1.58-2.94-5.17,0-3.92,1.16-5.16,2.9-5.16,1.91,0,2.89,1.33,2.89,5.22C203.51,50.42,202.52,52,200.66,52Z"/><rect class="cls-1" x="213.83" y="30.2" width="7.02" height="4.89"/><rect class="cls-1" x="213.83" y="37.41" width="7.02" height="18.87"/><path class="cls-1" d="M237.32,37A6,6,0,0,0,232,39.49a18.69,18.69,0,0,0-.22-2.08h-6.85c0,1.49.05,3.26.05,4.89v14h7V45.52c0-2.65.92-3.43,2.38-3.43,1.62,0,2.14,1,2.14,2.84V56.28h7V44.12C243.49,39.5,241.1,37,237.32,37Z"/><path class="cls-1" d="M255.27,36.42c0-1.35.41-1.8,1.63-1.8a5.33,5.33,0,0,1,.91.07V30.08a14.53,14.53,0,0,0-2.88-.24c-4.63,0-6.68,2.42-6.68,6.46v1.11h-2.47v4.73h2.47V56.28h7V42.14h2.92V37.41h-2.92Z"/><path class="cls-1" d="M269.61,37c-6.77,0-10.23,4.25-10.23,9.94,0,5.45,3.31,9.84,10,9.84,6.48,0,10.15-4,10.15-9.91C279.53,41.1,275.83,37,269.61,37ZM269.49,52c-1.88,0-2.94-1.58-2.94-5.17,0-3.92,1.16-5.16,2.9-5.16,1.91,0,2.89,1.33,2.89,5.22C272.34,50.42,271.35,52,269.49,52Z"/><path class="cls-1" d="M289.64,40.47c0-.82-.09-2.48-.17-3.06h-6.86c0,1.68.05,3.61.05,5.41V56.28h7V48.52c0-4.42,1.79-5.32,5.76-5.15V37C292.2,37,290.37,38.66,289.64,40.47Z"/><path class="cls-1" d="M320.85,37a6.91,6.91,0,0,0-5.79,2.6,5,5,0,0,0-4.81-2.6,6.34,6.34,0,0,0-5.31,2.47c0-.67-.15-1.58-.22-2H298c0,1.6,0,3.43,0,5.16V56.28H305V45.42c0-2.45.65-3.33,2.2-3.33s1.93,1.17,1.93,2.58V56.28H316v-11c0-2.17.59-3.19,2.16-3.19s2,1.15,2,2.54V56.28H327V44C327,39.17,324.36,37,320.85,37Z"/><polygon class="cls-1" points="348.05 29.69 340.55 29.69 336.26 35.09 341.72 35.09 348.05 29.69"/><path class="cls-1" d="M348.27,43.91c0-4.55-2.51-6.94-8.7-7-6.7,0-8.57,3.07-8.82,6.22h6.48c.16-1.21.58-1.94,2.17-1.94s2.12.88,2.12,2.09v1H339.2c-5.76,0-9.32,1.91-9.32,6.35,0,3.36,2.29,6,6.52,6,3,0,4.43-1,5.33-2.19a7.45,7.45,0,0,0,.29,1.74h6.47c-.12-.64-.22-3.47-.22-5.6Zm-6.75,4.57c0,2-.34,3.66-2.71,3.66a1.88,1.88,0,0,1-2.06-2c0-1.39.8-2.24,3.21-2.24h1.56Z"/><path class="cls-1" d="M360.13,32.52h-6.94v4.89h-2.72v4.73h2.68v8.7c0,3.56,1.25,5.74,5.71,5.74a15.46,15.46,0,0,0,4.09-.44V51.81a9,9,0,0,1-1,0c-1.47,0-1.84-.45-1.84-1.61v-8.1h3.31V37.41h-3.31Z"/><rect class="cls-1" x="366" y="30.2" width="7.02" height="4.89"/><rect class="cls-1" x="366" y="37.41" width="7.02" height="18.87"/><path class="cls-1" d="M386.05,41.65c1.54,0,2.12,1.05,2.3,2.37H395c-.12-2.28-1.91-7.07-9-7.07-6.3,0-9.82,4.39-9.82,10.06,0,5.37,2.92,9.72,9.56,9.72s8.72-3.59,9.28-7h-6.67c-.31,1.26-.93,2.35-2.36,2.35-1.65,0-2.63-1.44-2.63-5.32C383.38,43.31,384.28,41.65,386.05,41.65Z"/><path class="cls-1" d="M415.33,50.68V43.91c0-4.55-2.5-6.94-8.69-7-6.71,0-8.57,3.07-8.82,6.22h6.47c.17-1.21.59-1.94,2.17-1.94s2.13.88,2.13,2.09v1h-2.32c-5.76,0-9.32,1.91-9.32,6.35,0,3.36,2.29,6,6.52,6,3,0,4.43-1,5.33-2.19a8,8,0,0,0,.28,1.74h6.48A55.59,55.59,0,0,1,415.33,50.68Zm-6.74-2.2c0,2-.34,3.66-2.72,3.66a1.88,1.88,0,0,1-2.05-2c0-1.39.79-2.24,3.21-2.24h1.56Z"/><path class="cls-1" d="M104.81,0q-13.5,0-27,0H35.68C26.7,0,17.72,0,8.74,0,3.22.06,0,3.3,0,8.85V67.31c0,5.28,3.24,8.46,8.47,8.53H39.52a2.92,2.92,0,0,1,2.26,1.22,5.44,5.44,0,0,1-3.73,6.74A5.13,5.13,0,0,1,36.5,84C9.41,94.23,113.28,93.72,73,82.85a8,8,0,0,1-1-7h32.58c5.77,0,8.79-3.09,8.8-8.91V8.71C113.38,3.34,110.16.05,104.81,0Zm6.37,66.49c0,4.88-2.18,7.08-7,7.08H9.27c-4.94,0-7-2.06-7-7V8.89c0-4.51,2.06-6.56,6.58-6.57,8.9,0,17.8,0,26.69-.06l42.29,0c8.81.08,17.61,0,26.43,0,4.93,0,6.92,2.06,6.92,7Z"/><path class="cls-1" d="M30.67,24.59c1.44-1,2.86-1.86,4.2-2.89,2.54-1.84,4.34-4.16,4.6-7.36.06-.68-.52-1.42-.81-2.12-.47.57-1.23,1.09-1.34,1.72-.87,5.15-5.15,6.9-8.94,9.13a1.17,1.17,0,0,1-1,0c-3.87-2.24-8.21-4.13-8.91-9.45-.07-.5-.72-.93-1.1-1.4-.34.58-1.11,1.31-1,1.7.78,2.1,1.45,4.41,2.84,6.09,1.52,1.85,3.83,3.09,5.89,4.71-11.48,6-12.28,16.21.05,22.9-1.73,1.25-3.52,2.39-5.15,3.74a9,9,0,0,0-3.65,7c0,.56.51,1.11.79,1.66.45-.48,1.23-.92,1.3-1.45.79-5.3,5.08-7.15,9-9.41a1.1,1.1,0,0,1,1,0c3.76,2.24,8,4,8.91,9.16.1.66.85,1.12,1.31,1.69.3-.68.9-1.4.83-2.06a10.36,10.36,0,0,0-4.57-7.38c-1.4-1-2.84-2-4.36-3C40.86,42.22,44.28,32.39,30.67,24.59Zm2.67,18.35C27,47.19,28.74,47.22,22.7,43c-5.75-4-5.86-9.67.05-13.79s4.28-4.12,10.46,0c2.45,1.6,4.06,3.86,4.12,6.52v0A8.31,8.31,0,0,1,33.34,42.94Z"/><path class="cls-1" d="M21.84,14.63H34a1,1,0,1,0,0-1.91H21.84a1,1,0,1,0,0,1.91Z"/><rect class="cls-1" x="23.3" y="17.16" width="9.25" height="1.92" rx="0.78"/><path class="cls-1" d="M34,57.19H21.84a1,1,0,1,0,0,1.91H34a1,1,0,1,0,0-1.91Z"/><rect class="cls-1" x="23.3" y="52.75" width="9.25" height="1.92" rx="0.78"/><path class="cls-1" d="M34,31.79H21.84a1,1,0,0,0,0,1.92H34a1,1,0,0,0,0-1.92Z"/><path class="cls-1" d="M34,38.2H21.84a1,1,0,1,0,0,1.91H34a1,1,0,1,0,0-1.91Z"/><path class="cls-1" d="M91.53,25.49V56.86c0,.36.09.46.45.46h4c.42,0,.5-.13.5-.52V41.19q0-7.9.06-15.72c0-.35-.09-.47-.46-.47H92C91.61,25,91.53,25.13,91.53,25.49Z"/><path class="cls-1" d="M67.87,36.78c-.28,0-.39.06-.39.38V56.87c0,.32.1.39.39.39H72c.37,0,.48-.08.48-.46V47c0-3.27,0-6.55,0-9.81,0-.3-.05-.42-.39-.42Z"/><path class="cls-1" d="M84.15,39.68H80c-.33,0-.41.1-.41.42V56.84c0,.32.07.43.4.43h4.12c.35,0,.44-.11.44-.44V48.52c0-2.83,0-5.63,0-8.43C84.54,39.79,84.47,39.68,84.15,39.68Z"/><path class="cls-1" d="M55.81,57.25H60c.31,0,.39-.09.39-.39V43.2c0-.34-.13-.4-.42-.4H55.87c-.36,0-.46.1-.46.45V56.83C55.41,57.13,55.48,57.25,55.81,57.25Z"/><path class="cls-1" d="M59.94,34.36a3.23,3.23,0,0,0,2.35-3.92l0-.09c0-.24.16-.36.3-.51q3.9-3.87,7.78-7.77c.1-.1.22-.19.34-.29a3.79,3.79,0,0,0,2.06,0c1.16,1.18,2.31,2.36,3.49,3.53a7.12,7.12,0,0,0,1,1l-.07.32A3.25,3.25,0,1,0,83.53,28a3.36,3.36,0,0,0,.07-.9,1.26,1.26,0,0,1,.52-1.14q3.76-3.8,7.53-7.63a.8.8,0,0,1,.67-.29h.46A3.23,3.23,0,0,0,95,12.47h0A3.24,3.24,0,0,0,89.76,16c0,.23-.16.36-.3.51l-7.57,7.57-.31.25a3.71,3.71,0,0,0-2.44-.06c-.59-.7-1.26-1.31-1.89-1.94-.83-.84-1.68-1.65-2.52-2.48a.37.37,0,0,1,0-.23,3.14,3.14,0,0,0-1-3.36,3.08,3.08,0,0,0-3.34-.54,3.25,3.25,0,0,0-1.86,3.88.7.7,0,0,1-.29.5l-7.7,7.74a.77.77,0,0,1-.67.28,3.59,3.59,0,0,0-1.53,0,3.23,3.23,0,1,0,1.58,6.27Z"/><path class="cls-1" d="M102.2,58.76H49.68V13.86a1,1,0,0,0-2,0V59.73a1,1,0,0,0,1,1h53.48v0a1,1,0,0,0,0-2Z"/></g></g></svg>