<svg xmlns="http://www.w3.org/2000/svg" viewBox="0 0 110.08 88.69"><title>Recurso 5bioinformatic</title><g id="Capa_2" data-name="Capa 2"><g id="Capa_1-2" data-name="Capa 1"><path d="M75.58,2.23c8.55.08,17.1,0,25.66,0,4.79,0,6.72,2,6.72,6.84q0,27.77,0,55.52c0,4.74-2.12,6.88-6.79,6.88H9c-4.79,0-6.78-2-6.79-6.84q0-28,0-56c0-4.38,2-6.37,6.39-6.38,8.64,0,17.28,0,25.91-.06Zm0-2.16H34.65C25.93,0,17.21,0,8.49,0,3.13.06,0,3.2,0,8.59,0,17,0,25.36,0,33.74,0,44.28,0,54.82,0,65.36c0,5.13,3.15,8.21,8.23,8.28,1,0,2,0,3,0,9,0,18.1,0,27.15,0,.76,0,2,.62,2.19,1.19a5.29,5.29,0,0,1-5.13,6.75C9.14,91.5,110,91,70.92,80.45a7.78,7.78,0,0,1-1-6.82h2.74c9.63,0,19.26,0,28.89,0,5.6,0,8.54-3,8.55-8.65q0-28.26,0-56.52c0-5.22-3.13-8.41-8.32-8.43Q88.67,0,75.59.07Z"/><path d="M24.43,24c-2-1.57-4.24-2.77-5.72-4.57-1.35-1.63-2-3.87-2.75-5.91-.14-.38.61-1.09.94-1.65.37.45,1,.87,1.07,1.36.68,5.16,4.89,7,8.65,9.17a1.11,1.11,0,0,0,.94,0c3.68-2.16,7.84-3.86,8.68-8.86.11-.62.85-1.12,1.3-1.67.28.68.85,1.39.79,2.05-.25,3.11-2,5.36-4.47,7.15-1.3,1-2.68,1.85-4.08,2.81C43,31.45,39.68,41,29.67,46.19c1.47,1,2.87,2,4.23,2.94a10.06,10.06,0,0,1,4.44,7.17c.07.64-.52,1.34-.81,2-.44-.55-1.17-1-1.27-1.64-.83-5-5-6.72-8.65-8.9a1.1,1.1,0,0,0-.94,0c-3.77,2.2-7.94,4-8.7,9.14-.07.52-.83.94-1.27,1.41-.27-.53-.77-1.07-.76-1.61a8.74,8.74,0,0,1,3.54-6.83c1.58-1.31,3.32-2.42,5-3.63C12.51,39.74,13.29,29.79,24.43,24Zm11.82,10.7c-.06-2.58-1.62-4.77-4-6.33-6-4-4.42-4-10.16,0s-5.63,9.5-.05,13.39c5.87,4.09,4.18,4.06,10.34-.06A8.09,8.09,0,0,0,36.25,34.72Z"/><rect x="20.28" y="12.35" width="13.67" height="1.86" rx="0.93"/><rect x="22.63" y="16.66" width="8.98" height="1.86" rx="0.76"/><rect x="20.28" y="55.53" width="13.67" height="1.86" rx="0.93"/><rect x="22.63" y="51.22" width="8.98" height="1.86" rx="0.76"/><rect x="20.28" y="30.87" width="13.67" height="1.86" rx="0.93"/><rect x="20.28" y="37.09" width="13.67" height="1.86" rx="0.93"/><path d="M93.73,40c0,5,0,10.1,0,15.15,0,.38-.08.52-.49.51-1.31,0-2.61,0-3.92,0-.35,0-.44-.1-.44-.45q0-8.35,0-16.73,0-6.87,0-13.73c0-.35.08-.47.46-.47,1.32,0,2.63,0,4,0,.36,0,.44.11.44.45Q93.73,32.32,93.73,40Z"/><path d="M70.37,45.65c0,3.16,0,6.33,0,9.5,0,.37-.1.46-.46.45-1.35,0-2.69,0-4,0-.29,0-.38-.07-.38-.38q0-9.57,0-19.14c0-.31.1-.38.38-.37,1.37,0,2.75,0,4.12,0,.33,0,.38.12.38.41C70.36,39.29,70.37,42.47,70.37,45.65Z"/><path d="M82.05,47.11c0,2.69,0,5.38,0,8.07,0,.32-.08.43-.42.43-1.34,0-2.69,0-4,0-.32,0-.39-.11-.39-.42q0-8.11,0-16.25c0-.31.08-.41.4-.41,1.36,0,2.72,0,4.07,0,.31,0,.38.11.38.4Q82,43,82.05,47.11Z"/><path d="M53.81,48.53c0-2.17,0-4.35,0-6.53,0-.34.09-.45.44-.44,1.33,0,2.67,0,4,0,.29,0,.41.06.41.39q0,6.63,0,13.26c0,.29-.08.38-.38.38-1.36,0-2.72,0-4.08,0-.33,0-.39-.12-.39-.41C53.81,53,53.81,50.75,53.81,48.53Z"/><path d="M92.3,12.12a3.15,3.15,0,0,0-5.14,3.39h0c0,.22-.15.35-.29.49l-7.35,7.35a3.61,3.61,0,0,1-.3.25,3.57,3.57,0,0,0-2.37-.06c-.57-.68-1.22-1.27-1.84-1.89-.8-.81-1.63-1.6-2.44-2.4h0c0-.08,0-.16.05-.23a3.07,3.07,0,0,0-1-3.26,3,3,0,0,0-3.25-.52A3.14,3.14,0,0,0,66.57,19c0,.23-.15.35-.29.49L58.81,27a.76.76,0,0,1-.65.28,3.41,3.41,0,0,0-1.49,0,3.14,3.14,0,1,0,3.79,2.19h0c0-.23.15-.35.29-.49q3.78-3.76,7.55-7.55c.1-.1.22-.18.33-.28a3.76,3.76,0,0,0,2,0h0c1.13,1.14,2.25,2.29,3.39,3.43a7.69,7.69,0,0,0,1,.92h0l-.06.31a3.15,3.15,0,1,0,6.22.49h0a1.23,1.23,0,0,1,.5-1.11Q85.34,21.5,89,17.78a.76.76,0,0,1,.65-.28h.44a3.14,3.14,0,0,0,2.18-5.39Z"/><path d="M99.25,59H47.32a1,1,0,0,1-1-1V13.46a1,1,0,0,1,1.92,0v43.6h51a1,1,0,0,1,0,1.92Z"/></g></g></svg>